<svg xmlns="http://www.w3.org/2000/svg" viewBox="0 0 1850 1340" font-family="Arial, Helvetica, sans-serif">
  <rect width="1850" height="1340" fill="#ffffff" />
  <text x="925" y="30" text-anchor="middle" font-size="19" font-weight="bold" fill="#222">Conceptual model — Persepolis (CIDOC-CRM / FOAF instance graph)</text>
  <text x="925" y="48" text-anchor="middle" font-size="11.5" fill="#666" font-style="italic">Yellow = class (owl:Class) · pink circle = individual (instance) · labeled arrow = object property</text>
  <defs>
    <marker id="arrow" markerWidth="9" markerHeight="9" refX="8" refY="3" orient="auto" markerUnits="strokeWidth">
      <path d="M0,0 L0,6 L8,3 z" fill="#3355aa" />
    </marker>
    <marker id="arrowd" markerWidth="9" markerHeight="9" refX="8" refY="3" orient="auto" markerUnits="strokeWidth">
      <path d="M0,0 L0,6 L8,3 z" fill="#7788c0" />
    </marker>
    <marker id="arrow2" markerWidth="8" markerHeight="8" refX="7" refY="2.5" orient="auto" markerUnits="strokeWidth">
      <path d="M0,0 L0,5 L7,2.5 z" fill="#999" />
    </marker>
  </defs>
  <path d="M 629.0,451.0 C 549.0,381.0 419.0,211.0 349.0,151.0" fill="none" stroke="#3355aa" stroke-width="1.5" marker-end="url(#arrow)" opacity="0.95" />
  <rect x="465.5" y="286" width="59.0" height="15" rx="3" fill="#ffffff" stroke="#d8def2" stroke-width="0.5" opacity="0.95" />
  <text x="495" y="297" text-anchor="middle" font-size="9.2" font-weight="bold" fill="#3355aa">ex:builtBy</text>
  <path d="M 629.0,451.0 C 634.0,361.0 644.0,211.0 649.0,151.0" fill="none" stroke="#3355aa" stroke-width="1.5" marker-end="url(#arrow)" opacity="0.95" />
  <rect x="652.55" y="286" width="74.9" height="15" rx="3" fill="#ffffff" stroke="#d8def2" stroke-width="0.5" opacity="0.95" />
  <text x="690" y="297" text-anchor="middle" font-size="9.2" font-weight="bold" fill="#3355aa">ex:expandedBy</text>
  <path d="M 629.0,451.0 C 699.0,331.0 854.0,191.0 924.0,151.0" fill="none" stroke="#3355aa" stroke-width="1.5" marker-end="url(#arrow)" opacity="0.95" />
  <rect x="775" y="221" width="86" height="16" rx="3" fill="#ffffff" stroke="#d8def2" stroke-width="0.5" opacity="0.95" />
  <text x="818.0" y="232" text-anchor="middle" font-size="9.2" font-weight="bold" fill="#3355aa">ex:destroyedBy</text>
  <line x1="619.3" y1="445.8" x2="358.7" y2="306.2" stroke="#3355aa" stroke-width="1.1" marker-end="url(#arrow)" opacity="0.85" />
  <rect x="458.9" y="357.2" width="69.6" height="12" fill="#ffffff" opacity="0.88" />
  <text x="493.7" y="367.2" text-anchor="middle" font-size="8.6" fill="#3355aa">ex:capitalOf</text>
  <line x1="618.0" y1="451.0" x2="75.0" y2="451.0" stroke="#3355aa" stroke-width="1.1" marker-end="url(#arrow)" opacity="0.85" />
  <rect x="303.8" y="431.0" width="85.5" height="12" fill="#ffffff" opacity="0.88" />
  <text x="346.5" y="441.0" text-anchor="middle" font-size="8.6" fill="#3355aa">dcterms:spatial</text>
  <line x1="618.4" y1="453.8" x2="74.6" y2="598.2" stroke="#3355aa" stroke-width="1.1" marker-end="url(#arrow)" opacity="0.85" />
  <rect x="303.8" y="506.3" width="80.2" height="12" fill="#ffffff" opacity="0.88" />
  <text x="343.9" y="516.3" text-anchor="middle" font-size="8.6" fill="#3355aa">ex:locatedNear</text>
  <line x1="64.0" y1="590.0" x2="64.0" y2="462.0" stroke="#7788c0" stroke-width="1.1" stroke-dasharray="6 4" marker-end="url(#arrowd)" opacity="0.85" />
  <rect x="29.2" y="516.0" width="85.5" height="12" fill="#ffffff" opacity="0.88" />
  <text x="72.0" y="526.0" text-anchor="middle" font-size="8.6" fill="#7788c0">dcterms:spatial</text>
  <line x1="640.0" y1="451.0" x2="1183.0" y2="451.0" stroke="#3355aa" stroke-width="1.1" marker-end="url(#arrow)" opacity="0.85" />
  <rect x="868.8" y="451.0" width="85.5" height="12" fill="#ffffff" opacity="0.88" />
  <text x="911.5" y="461.0" text-anchor="middle" font-size="8.6" fill="#3355aa">dcterms:hasPart</text>
  <line x1="639.6" y1="453.8" x2="1178.4" y2="598.2" stroke="#3355aa" stroke-width="1.1" marker-end="url(#arrow)" opacity="0.85" />
  <rect x="863.7" y="525.7" width="85.5" height="12" fill="#ffffff" opacity="0.88" />
  <text x="906.4" y="535.7" text-anchor="middle" font-size="8.6" fill="#3355aa">dcterms:hasPart</text>
  <line x1="638.8" y1="456.1" x2="1194.2" y2="745.9" stroke="#3355aa" stroke-width="1.1" marker-end="url(#arrow)" opacity="0.85" />
  <rect x="869.1" y="599.9" width="85.5" height="12" fill="#ffffff" opacity="0.88" />
  <text x="911.9" y="609.9" text-anchor="middle" font-size="8.6" fill="#3355aa">dcterms:hasPart</text>
  <line x1="1183.6" y1="447.3" x2="359.4" y2="154.7" stroke="#7788c0" stroke-width="1.1" stroke-dasharray="6 4" marker-end="url(#arrowd)" opacity="0.85" />
  <rect x="744.7" y="283.5" width="59.0" height="12" fill="#ffffff" opacity="0.88" />
  <text x="774.2" y="293.5" text-anchor="middle" font-size="8.6" fill="#7788c0">ex:builtBy</text>
  <line x1="1184.4" y1="445.7" x2="658.6" y2="156.3" stroke="#7788c0" stroke-width="1.1" stroke-dasharray="6 4" marker-end="url(#arrowd)" opacity="0.85" />
  <rect x="885.3" y="284.0" width="80.2" height="12" fill="#ffffff" opacity="0.88" />
  <text x="925.4" y="294.0" text-anchor="middle" font-size="8.6" fill="#7788c0">ex:completedBy</text>
  <line x1="1180.5" y1="594.0" x2="657.5" y2="158.0" stroke="#7788c0" stroke-width="1.1" stroke-dasharray="6 4" marker-end="url(#arrowd)" opacity="0.85" />
  <rect x="894.6" y="359.9" width="59.0" height="12" fill="#ffffff" opacity="0.88" />
  <text x="924.1" y="369.9" text-anchor="middle" font-size="8.6" fill="#7788c0">ex:builtBy</text>
  <line x1="1195.0" y1="744.7" x2="358.0" y2="157.3" stroke="#7788c0" stroke-width="1.1" stroke-dasharray="6 4" marker-end="url(#arrowd)" opacity="0.85" />
  <rect x="751.6" y="434.5" width="59.0" height="12" fill="#ffffff" opacity="0.88" />
  <text x="781.1" y="444.5" text-anchor="middle" font-size="8.6" fill="#7788c0">ex:builtBy</text>
  <line x1="1209.2" y1="156.0" x2="638.8" y2="446.0" stroke="#3355aa" stroke-width="1.1" marker-end="url(#arrow)" opacity="0.85" />
  <rect x="882.0" y="282.1" width="74.9" height="12" fill="#ffffff" opacity="0.88" />
  <text x="919.5" y="292.1" text-anchor="middle" font-size="8.6" fill="#3355aa">ex:recognizes</text>
  <line x1="339.2" y1="295.9" x2="68.8" y2="156.1" stroke="#7788c0" stroke-width="1.1" stroke-dasharray="6 4" marker-end="url(#arrowd)" opacity="0.85" />
  <rect x="172.9" y="208.9" width="69.6" height="12" fill="#ffffff" opacity="0.88" />
  <text x="207.7" y="218.9" text-anchor="middle" font-size="8.6" fill="#7788c0">ex:foundedBy</text>
  <line x1="63.6" y1="290.0" x2="59.4" y2="162.0" stroke="#7788c0" stroke-width="1.1" stroke-dasharray="6 4" marker-end="url(#arrowd)" opacity="0.85" />
  <rect x="40.0" y="215.7" width="59.0" height="12" fill="#ffffff" opacity="0.88" />
  <text x="69.5" y="225.7" text-anchor="middle" font-size="8.6" fill="#7788c0">ex:builtBy</text>
  <line x1="75.0" y1="301.0" x2="338.0" y2="301.0" stroke="#7788c0" stroke-width="1.1" stroke-dasharray="6 4" marker-end="url(#arrowd)" opacity="0.85" />
  <rect x="171.7" y="299.0" width="69.6" height="12" fill="#ffffff" opacity="0.88" />
  <text x="206.5" y="309.0" text-anchor="middle" font-size="8.6" fill="#7788c0">ex:capitalOf</text>
  <line x1="618.4" y1="448.2" x2="74.6" y2="303.8" stroke="#3355aa" stroke-width="1.1" marker-end="url(#arrow)" opacity="0.85" />
  <rect x="316.9" y="356.3" width="64.3" height="12" fill="#ffffff" opacity="0.88" />
  <text x="349.1" y="366.3" text-anchor="middle" font-size="8.6" fill="#3355aa">ex:succeeds</text>
  <line x1="68.7" y1="745.9" x2="619.3" y2="456.1" stroke="#3355aa" stroke-width="1.1" marker-end="url(#arrow)" opacity="0.85" />
  <rect x="308.6" y="599.8" width="80.2" height="12" fill="#ffffff" opacity="0.88" />
  <text x="348.7" y="609.8" text-anchor="middle" font-size="8.6" fill="#3355aa">ex:locatedNear</text>
  <line x1="63.8" y1="741.1" x2="344.2" y2="160.9" stroke="#7788c0" stroke-width="1.1" stroke-dasharray="6 4" marker-end="url(#arrowd)" opacity="0.85" />
  <rect x="168.5" y="444.5" width="85.5" height="12" fill="#ffffff" opacity="0.88" />
  <text x="211.2" y="454.5" text-anchor="middle" font-size="8.6" fill="#7788c0">ex:containsTomb</text>
  <line x1="66.7" y1="743.2" x2="641.3" y2="158.8" stroke="#7788c0" stroke-width="1.1" stroke-dasharray="6 4" marker-end="url(#arrowd)" opacity="0.85" />
  <rect x="317.0" y="446.6" width="85.5" height="12" fill="#ffffff" opacity="0.88" />
  <text x="359.7" y="456.6" text-anchor="middle" font-size="8.6" fill="#7788c0">ex:containsTomb</text>
  <line x1="620.4" y1="457.9" x2="72.6" y2="894.1" stroke="#3355aa" stroke-width="1.1" marker-end="url(#arrow)" opacity="0.85" />
  <rect x="300.2" y="658.2" width="80.2" height="12" fill="#ffffff" opacity="0.88" />
  <text x="340.3" y="668.2" text-anchor="middle" font-size="8.6" fill="#3355aa">ex:excavatedBy</text>
  <line x1="623.3" y1="460.4" x2="359.7" y2="891.6" stroke="#3355aa" stroke-width="1.1" marker-end="url(#arrow)" opacity="0.85" />
  <rect x="442.9" y="660.8" width="80.2" height="12" fill="#ffffff" opacity="0.88" />
  <text x="483.0" y="670.8" text-anchor="middle" font-size="8.6" fill="#3355aa">ex:excavatedBy</text>
  <line x1="343.0" y1="901.0" x2="75.0" y2="901.0" stroke="#7788c0" stroke-width="1.1" stroke-dasharray="6 4" marker-end="url(#arrowd)" opacity="0.85" />
  <rect x="142.4" y="883.0" width="133.2" height="12" fill="#ffffff" opacity="0.88" />
  <text x="209.0" y="893.0" text-anchor="middle" font-size="8.6" fill="#7788c0">ex:succeededExcavationOf</text>
  <line x1="1478.6" y1="154.6" x2="639.4" y2="447.4" stroke="#3355aa" stroke-width="1.1" marker-end="url(#arrow)" opacity="0.85" />
  <rect x="989.1" y="281.6" width="133.2" height="12" fill="#ffffff" opacity="0.88" />
  <text x="1055.7" y="291.6" text-anchor="middle" font-size="8.6" fill="#3355aa">ex:conductedExcavationAt</text>
  <line x1="633.9" y1="460.8" x2="924.1" y2="1041.2" stroke="#3355aa" stroke-width="1.1" marker-end="url(#arrow)" opacity="0.85" />
  <rect x="700.8" y="745.5" width="138.5" height="12" fill="#ffffff" opacity="0.88" />
  <text x="770.1" y="755.5" text-anchor="middle" font-size="8.6" fill="#3355aa">ex:associatedWithReligion</text>
  <line x1="635.2" y1="460.1" x2="927.8" y2="891.9" stroke="#3355aa" stroke-width="1.1" marker-end="url(#arrow)" opacity="0.85" />
  <rect x="733.1" y="671.6" width="80.2" height="12" fill="#ffffff" opacity="0.88" />
  <text x="773.2" y="681.6" text-anchor="middle" font-size="8.6" fill="#3355aa">ex:hasLanguage</text>
  <line x1="628.6" y1="462.0" x2="614.4" y2="890.0" stroke="#3355aa" stroke-width="1.1" marker-end="url(#arrow)" opacity="0.85" />
  <rect x="563.5" y="665.7" width="96.1" height="12" fill="#ffffff" opacity="0.88" />
  <text x="611.5" y="675.7" text-anchor="middle" font-size="8.6" fill="#3355aa">ex:yieldedArchive</text>
  <line x1="603.0" y1="901.0" x2="75.0" y2="901.0" stroke="#7788c0" stroke-width="1.1" stroke-dasharray="6 4" marker-end="url(#arrowd)" opacity="0.85" />
  <rect x="296.2" y="883.0" width="85.5" height="12" fill="#ffffff" opacity="0.88" />
  <text x="339.0" y="893.0" text-anchor="middle" font-size="8.6" fill="#7788c0">ex:discoveredBy</text>
  <line x1="628.9" y1="462.0" x2="624.1" y2="1040.0" stroke="#999" stroke-width="0.9" stroke-dasharray="2 3" marker-end="url(#arrow2)" opacity="0.8" />
  <rect x="524.1" y="740.9" width="180.8" height="11" fill="#ffffff" opacity="0.85" />
  <text x="614.5" y="750.9" text-anchor="middle" font-size="7.6" fill="#888">crm:P92i_was_brought_into_existence_by</text>
  <line x1="638.8" y1="445.9" x2="909.2" y2="306.1" stroke="#999" stroke-width="0.9" stroke-dasharray="2 3" marker-end="url(#arrow2)" opacity="0.8" />
  <rect x="689.1" y="376.7" width="180.8" height="11" fill="#ffffff" opacity="0.85" />
  <text x="779.5" y="386.7" text-anchor="middle" font-size="7.6" fill="#888">crm:P93i_was_taken_out_of_existence_by</text>
  <line x1="343.8" y1="1041.1" x2="624.2" y2="460.9" stroke="#999" stroke-width="0.9" stroke-dasharray="2 3" marker-end="url(#arrow2)" opacity="0.8" />
  <rect x="445.8" y="746.2" width="98.0" height="11" fill="#ffffff" opacity="0.85" />
  <text x="494.8" y="756.2" text-anchor="middle" font-size="7.6" fill="#888">crm:P7_took_place_at</text>
  <line x1="1205.1" y1="290.1" x2="1217.9" y2="161.9" stroke="#999" stroke-width="0.9" stroke-dasharray="2 3" marker-end="url(#arrow2)" opacity="0.8" />
  <rect x="1167.5" y="217.2" width="111.8" height="11" fill="#ffffff" opacity="0.85" />
  <text x="1223.4" y="227.2" text-anchor="middle" font-size="7.6" fill="#888">crm:P11_had_participant</text>
  <line x1="620.8" y1="1040.5" x2="352.2" y2="161.5" stroke="#999" stroke-width="0.9" stroke-dasharray="2 3" marker-end="url(#arrow2)" opacity="0.8" />
  <rect x="442.1" y="587.5" width="111.8" height="11" fill="#ffffff" opacity="0.85" />
  <text x="498.0" y="597.5" text-anchor="middle" font-size="7.6" fill="#888">crm:P11_had_participant</text>
  <line x1="919.4" y1="290.0" x2="923.6" y2="162.0" stroke="#999" stroke-width="0.9" stroke-dasharray="2 3" marker-end="url(#arrow2)" opacity="0.8" />
  <rect x="877.6" y="216.4" width="111.8" height="11" fill="#ffffff" opacity="0.85" />
  <text x="933.5" y="226.4" text-anchor="middle" font-size="7.6" fill="#888">crm:P11_had_participant</text>
  <line x1="329.3" y1="1045.7" x2="73.7" y2="906.3" stroke="#999" stroke-width="0.9" stroke-dasharray="2 3" marker-end="url(#arrow2)" opacity="0.8" />
  <rect x="151.3" y="955.5" width="111.8" height="11" fill="#ffffff" opacity="0.85" />
  <text x="207.2" y="965.5" text-anchor="middle" font-size="7.6" fill="#888">crm:P11_had_participant</text>
  <line x1="340.1" y1="1040.1" x2="352.9" y2="911.9" stroke="#999" stroke-width="0.9" stroke-dasharray="2 3" marker-end="url(#arrow2)" opacity="0.8" />
  <rect x="302.5" y="967.2" width="111.8" height="11" fill="#ffffff" opacity="0.85" />
  <text x="358.4" y="977.2" text-anchor="middle" font-size="7.6" fill="#888">crm:P11_had_participant</text>
  <rect x="45.0" y="95.0" width="190" height="30" fill="#fff200" stroke="#8a7a00" stroke-width="1.3" />
  <text x="140" y="114" text-anchor="middle" font-size="11" font-weight="bold" fill="#2b2620">foaf:Person</text>
  <line x1="59.0" y1="125.0" x2="59.0" y2="142.0" stroke="#333" stroke-width="0.8" />
  <circle cx="59.0" cy="151.0" r="9" fill="#f6b8d0" stroke="#333" stroke-width="0.9" />
  <text x="72.0" y="154.0" font-size="9.3" fill="#111">cyrus_the_great</text>
  <rect x="335.0" y="95.0" width="190" height="30" fill="#fff200" stroke="#8a7a00" stroke-width="1.3" />
  <text x="430" y="114" text-anchor="middle" font-size="11" font-weight="bold" fill="#2b2620">foaf:Person</text>
  <line x1="349.0" y1="125.0" x2="349.0" y2="142.0" stroke="#333" stroke-width="0.8" />
  <circle cx="349.0" cy="151.0" r="9" fill="#f6b8d0" stroke="#333" stroke-width="0.9" />
  <text x="362.0" y="154.0" font-size="9.3" fill="#111">darius_the_great</text>
  <rect x="635.0" y="95.0" width="170" height="30" fill="#fff200" stroke="#8a7a00" stroke-width="1.3" />
  <text x="720" y="114" text-anchor="middle" font-size="11" font-weight="bold" fill="#2b2620">foaf:Person</text>
  <line x1="649.0" y1="125.0" x2="649.0" y2="142.0" stroke="#333" stroke-width="0.8" />
  <circle cx="649.0" cy="151.0" r="9" fill="#f6b8d0" stroke="#333" stroke-width="0.9" />
  <text x="662.0" y="154.0" font-size="9.3" fill="#111">xerxes_i</text>
  <rect x="910.0" y="95.0" width="200" height="30" fill="#fff200" stroke="#8a7a00" stroke-width="1.3" />
  <text x="1010" y="114" text-anchor="middle" font-size="11" font-weight="bold" fill="#2b2620">foaf:Person</text>
  <line x1="924.0" y1="125.0" x2="924.0" y2="142.0" stroke="#333" stroke-width="0.8" />
  <circle cx="924.0" cy="151.0" r="9" fill="#f6b8d0" stroke="#333" stroke-width="0.9" />
  <text x="937.0" y="154.0" font-size="9.3" fill="#111">alexander_the_great</text>
  <rect x="1205.0" y="95.0" width="190" height="30" fill="#fff200" stroke="#8a7a00" stroke-width="1.3" />
  <text x="1300" y="114" text-anchor="middle" font-size="11" font-weight="bold" fill="#2b2620">foaf:Organization</text>
  <line x1="1219.0" y1="125.0" x2="1219.0" y2="142.0" stroke="#333" stroke-width="0.8" />
  <circle cx="1219.0" cy="151.0" r="9" fill="#f6b8d0" stroke="#333" stroke-width="0.9" />
  <text x="1232.0" y="154.0" font-size="9.3" fill="#111">unesco</text>
  <rect x="1475.0" y="95.0" width="230" height="30" fill="#fff200" stroke="#8a7a00" stroke-width="1.3" />
  <text x="1590" y="114" text-anchor="middle" font-size="11" font-weight="bold" fill="#2b2620">foaf:Organization</text>
  <line x1="1489.0" y1="125.0" x2="1489.0" y2="142.0" stroke="#333" stroke-width="0.8" />
  <circle cx="1489.0" cy="151.0" r="9" fill="#f6b8d0" stroke="#333" stroke-width="0.9" />
  <text x="1502.0" y="154.0" font-size="9.3" fill="#111">inst_study_ancient_cultures</text>
  <rect x="335.0" y="245.0" width="190" height="30" fill="#fff200" stroke="#8a7a00" stroke-width="1.3" />
  <text x="430" y="264" text-anchor="middle" font-size="11" font-weight="bold" fill="#2b2620">crm:E4_Period</text>
  <line x1="349.0" y1="275.0" x2="349.0" y2="292.0" stroke="#333" stroke-width="0.8" />
  <circle cx="349.0" cy="301.0" r="9" fill="#f6b8d0" stroke="#333" stroke-width="0.9" />
  <text x="362.0" y="304.0" font-size="9.3" fill="#111">achaemenid_empire</text>
  <rect x="50.0" y="245.0" width="180" height="30" fill="#fff200" stroke="#8a7a00" stroke-width="1.3" />
  <text x="140" y="264" text-anchor="middle" font-size="11" font-weight="bold" fill="#2b2620">crm:E27_Site</text>
  <line x1="64.0" y1="275.0" x2="64.0" y2="292.0" stroke="#333" stroke-width="0.8" />
  <circle cx="64.0" cy="301.0" r="9" fill="#f6b8d0" stroke="#333" stroke-width="0.9" />
  <text x="77.0" y="304.0" font-size="9.3" fill="#111">pasargadae</text>
  <rect x="905.0" y="245.0" width="210" height="30" fill="#fff200" stroke="#8a7a00" stroke-width="1.3" />
  <text x="1010" y="264" text-anchor="middle" font-size="11" font-weight="bold" fill="#2b2620">crm:E6_Destruction</text>
  <line x1="919.0" y1="275.0" x2="919.0" y2="292.0" stroke="#333" stroke-width="0.8" />
  <circle cx="919.0" cy="301.0" r="9" fill="#f6b8d0" stroke="#333" stroke-width="0.9" />
  <text x="932.0" y="304.0" font-size="9.3" fill="#111">destruction_330_bc</text>
  <rect x="1190.0" y="245.0" width="220" height="30" fill="#fff200" stroke="#8a7a00" stroke-width="1.3" />
  <text x="1300" y="264" text-anchor="middle" font-size="11" font-weight="bold" fill="#2b2620">crm:E5_Event</text>
  <line x1="1204.0" y1="275.0" x2="1204.0" y2="292.0" stroke="#333" stroke-width="0.8" />
  <circle cx="1204.0" cy="301.0" r="9" fill="#f6b8d0" stroke="#333" stroke-width="0.9" />
  <text x="1217.0" y="304.0" font-size="9.3" fill="#111">unesco_inscription_1979</text>
  <rect x="50.0" y="395.0" width="180" height="30" fill="#fff200" stroke="#8a7a00" stroke-width="1.3" />
  <text x="140" y="414" text-anchor="middle" font-size="11" font-weight="bold" fill="#2b2620">crm:E53_Place</text>
  <line x1="64.0" y1="425.0" x2="64.0" y2="442.0" stroke="#333" stroke-width="0.8" />
  <circle cx="64.0" cy="451.0" r="9" fill="#f6b8d0" stroke="#333" stroke-width="0.9" />
  <text x="77.0" y="454.0" font-size="9.3" fill="#111">fars_province</text>
  <rect x="615.0" y="395.0" width="210" height="30" fill="#fff200" stroke="#8a7a00" stroke-width="1.3" />
  <text x="720" y="414" text-anchor="middle" font-size="11" font-weight="bold" fill="#2b2620">crm:E27_Site</text>
  <line x1="629.0" y1="425.0" x2="629.0" y2="442.0" stroke="#333" stroke-width="0.8" />
  <circle cx="629.0" cy="451.0" r="9" fill="#f6b8d0" stroke="#333" stroke-width="0.9" />
  <text x="642.0" y="454.0" font-size="9.3" fill="#111">persepolis</text>
  <rect x="1180.0" y="395.0" width="240" height="30" fill="#fff200" stroke="#8a7a00" stroke-width="1.3" />
  <text x="1300" y="414" text-anchor="middle" font-size="11" font-weight="bold" fill="#2b2620">crm:E22_Human-Made_Object</text>
  <line x1="1194.0" y1="425.0" x2="1194.0" y2="442.0" stroke="#333" stroke-width="0.8" />
  <circle cx="1194.0" cy="451.0" r="9" fill="#f6b8d0" stroke="#333" stroke-width="0.9" />
  <text x="1207.0" y="454.0" font-size="9.3" fill="#111">apadana</text>
  <rect x="50.0" y="545.0" width="180" height="30" fill="#fff200" stroke="#8a7a00" stroke-width="1.3" />
  <text x="140" y="564" text-anchor="middle" font-size="11" font-weight="bold" fill="#2b2620">crm:E53_Place</text>
  <line x1="64.0" y1="575.0" x2="64.0" y2="592.0" stroke="#333" stroke-width="0.8" />
  <circle cx="64.0" cy="601.0" r="9" fill="#f6b8d0" stroke="#333" stroke-width="0.9" />
  <text x="77.0" y="604.0" font-size="9.3" fill="#111">marvdasht</text>
  <rect x="1175.0" y="545.0" width="250" height="30" fill="#fff200" stroke="#8a7a00" stroke-width="1.3" />
  <text x="1300" y="564" text-anchor="middle" font-size="11" font-weight="bold" fill="#2b2620">crm:E22_Human-Made_Object</text>
  <line x1="1189.0" y1="575.0" x2="1189.0" y2="592.0" stroke="#333" stroke-width="0.8" />
  <circle cx="1189.0" cy="601.0" r="9" fill="#f6b8d0" stroke="#333" stroke-width="0.9" />
  <text x="1202.0" y="604.0" font-size="9.3" fill="#111">gate_of_all_nations</text>
  <rect x="45.0" y="695.0" width="190" height="30" fill="#fff200" stroke="#8a7a00" stroke-width="1.3" />
  <text x="140" y="714" text-anchor="middle" font-size="11" font-weight="bold" fill="#2b2620">crm:E27_Site</text>
  <line x1="59.0" y1="725.0" x2="59.0" y2="742.0" stroke="#333" stroke-width="0.8" />
  <circle cx="59.0" cy="751.0" r="9" fill="#f6b8d0" stroke="#333" stroke-width="0.9" />
  <text x="72.0" y="754.0" font-size="9.3" fill="#111">naqsh_e_rustam</text>
  <rect x="1190.0" y="695.0" width="220" height="30" fill="#fff200" stroke="#8a7a00" stroke-width="1.3" />
  <text x="1300" y="714" text-anchor="middle" font-size="11" font-weight="bold" fill="#2b2620">crm:E22_Human-Made_Object</text>
  <line x1="1204.0" y1="725.0" x2="1204.0" y2="742.0" stroke="#333" stroke-width="0.8" />
  <circle cx="1204.0" cy="751.0" r="9" fill="#f6b8d0" stroke="#333" stroke-width="0.9" />
  <text x="1217.0" y="754.0" font-size="9.3" fill="#111">tachara</text>
  <rect x="50.0" y="845.0" width="180" height="30" fill="#fff200" stroke="#8a7a00" stroke-width="1.3" />
  <text x="140" y="864" text-anchor="middle" font-size="11" font-weight="bold" fill="#2b2620">foaf:Person</text>
  <line x1="64.0" y1="875.0" x2="64.0" y2="892.0" stroke="#333" stroke-width="0.8" />
  <circle cx="64.0" cy="901.0" r="9" fill="#f6b8d0" stroke="#333" stroke-width="0.9" />
  <text x="77.0" y="904.0" font-size="9.3" fill="#111">ernst_herzfeld</text>
  <rect x="340.0" y="845.0" width="180" height="30" fill="#fff200" stroke="#8a7a00" stroke-width="1.3" />
  <text x="430" y="864" text-anchor="middle" font-size="11" font-weight="bold" fill="#2b2620">foaf:Person</text>
  <line x1="354.0" y1="875.0" x2="354.0" y2="892.0" stroke="#333" stroke-width="0.8" />
  <circle cx="354.0" cy="901.0" r="9" fill="#f6b8d0" stroke="#333" stroke-width="0.9" />
  <text x="367.0" y="904.0" font-size="9.3" fill="#111">erich_schmidt</text>
  <rect x="600.0" y="845.0" width="240" height="30" fill="#fff200" stroke="#8a7a00" stroke-width="1.3" />
  <text x="720" y="864" text-anchor="middle" font-size="11" font-weight="bold" fill="#2b2620">crm:E31_Document</text>
  <line x1="614.0" y1="875.0" x2="614.0" y2="892.0" stroke="#333" stroke-width="0.8" />
  <circle cx="614.0" cy="901.0" r="9" fill="#f6b8d0" stroke="#333" stroke-width="0.9" />
  <text x="627.0" y="904.0" font-size="9.3" fill="#111">persepolis_admin_archives</text>
  <rect x="920.0" y="845.0" width="180" height="30" fill="#fff200" stroke="#8a7a00" stroke-width="1.3" />
  <text x="1010" y="864" text-anchor="middle" font-size="11" font-weight="bold" fill="#2b2620">crm:E56_Language</text>
  <line x1="934.0" y1="875.0" x2="934.0" y2="892.0" stroke="#333" stroke-width="0.8" />
  <circle cx="934.0" cy="901.0" r="9" fill="#f6b8d0" stroke="#333" stroke-width="0.9" />
  <text x="947.0" y="904.0" font-size="9.3" fill="#111">old_persian</text>
  <rect x="325.0" y="995.0" width="210" height="30" fill="#fff200" stroke="#8a7a00" stroke-width="1.3" />
  <text x="430" y="1014" text-anchor="middle" font-size="11" font-weight="bold" fill="#2b2620">crm:E7_Activity</text>
  <line x1="339.0" y1="1025.0" x2="339.0" y2="1042.0" stroke="#333" stroke-width="0.8" />
  <circle cx="339.0" cy="1051.0" r="9" fill="#f6b8d0" stroke="#333" stroke-width="0.9" />
  <text x="352.0" y="1054.0" font-size="9.3" fill="#111">excavation_1931_1939</text>
  <rect x="610.0" y="995.0" width="220" height="30" fill="#fff200" stroke="#8a7a00" stroke-width="1.3" />
  <text x="720" y="1014" text-anchor="middle" font-size="11" font-weight="bold" fill="#2b2620">crm:E63_Beginning_of_Existence</text>
  <line x1="624.0" y1="1025.0" x2="624.0" y2="1042.0" stroke="#333" stroke-width="0.8" />
  <circle cx="624.0" cy="1051.0" r="9" fill="#f6b8d0" stroke="#333" stroke-width="0.9" />
  <text x="637.0" y="1054.0" font-size="9.3" fill="#111">foundation_518_bc</text>
  <rect x="915.0" y="995.0" width="190" height="30" fill="#fff200" stroke="#8a7a00" stroke-width="1.3" />
  <text x="1010" y="1014" text-anchor="middle" font-size="11" font-weight="bold" fill="#2b2620">skos:Concept</text>
  <line x1="929.0" y1="1025.0" x2="929.0" y2="1042.0" stroke="#333" stroke-width="0.8" />
  <circle cx="929.0" cy="1051.0" r="9" fill="#f6b8d0" stroke="#333" stroke-width="0.9" />
  <text x="942.0" y="1054.0" font-size="9.3" fill="#111">zoroastrianism</text>
  <rect x="40" y="1210" width="1770" height="112" fill="#fafafa" stroke="#ddd" rx="8" />
  <rect x="60" y="1224" width="20" height="18" fill="#fff200" stroke="#8a7a00" stroke-width="1.3" />
  <text x="88" y="1237" font-size="12">owl:Class (crm: CIDOC-CRM, foaf:, skos:) — reused vocabulary terms</text>
  <circle cx="70" cy="1256" r="9" fill="#f6b8d0" stroke="#333" stroke-width="0.9" />
  <text x="88" y="1260" font-size="12">Individual (one of the 20 project entities or 4 events) — instance of the class above it</text>
  <line x1="900" y1="1230" x2="945" y2="1230" stroke="#3355aa" stroke-width="1.4" marker-end="url(#arrow)" />
  <text x="953" y="1234" font-size="12">Solid = direct relationship (involves Persepolis)</text>
  <line x1="900" y1="1256" x2="945" y2="1256" stroke="#7788c0" stroke-width="1.4" stroke-dasharray="6 4" marker-end="url(#arrowd)" />
  <text x="953" y="1260" font-size="12">Dashed = secondary relationship (between two other entities)</text>
  <line x1="900" y1="1282" x2="945" y2="1282" stroke="#999" stroke-width="1.2" stroke-dasharray="2 3" marker-end="url(#arrow2)" />
  <text x="953" y="1286" font-size="12">Dotted = event-linking property (crm:P11, P92i, P93i, P7)</text>
  <text x="60" y="1286" font-size="12" fill="#333">30 relations total — 18 direct, 12 secondary (matches theoretical_model.svg exactly)</text>
</svg>